<?xml version="1.0" encoding="utf-8"?>
<!-- Generator: Adobe Illustrator 26.5.0, SVG Export Plug-In . SVG Version: 6.00 Build 0)  -->
<svg version="1.1" id="Capa_1" xmlns="http://www.w3.org/2000/svg" xmlns:xlink="http://www.w3.org/1999/xlink" x="0px" y="0px"
	 viewBox="0 0 54 54" style="enable-background:new 0 0 54 54;" xml:space="preserve">
<g>
	<path d="M41.8,0H12.2C5.5,0,0,5.5,0,12.2v29.6C0,48.5,5.5,54,12.2,54h29.6C48.5,54,54,48.5,54,41.8V12.2C54,5.5,48.5,0,41.8,0z
		 M52,41.8C52,47.4,47.4,52,41.8,52H12.2C6.6,52,2,47.4,2,41.8V12.2C2,6.6,6.6,2,12.2,2h29.6C47.4,2,52,6.6,52,12.2V41.8z"/>
	<path d="M16.6,12L8.4,40h3.1l2.6-9h8.3l2.8,9h3.2l-8.5-28H16.6z M14.9,28l3.4-11.4L21.7,28H14.9z"/>
	<path d="M37,19.6c-2.2,0-4,0.6-5.3,1.8c-1.3,1.2-2,2.9-2,5v8.2c0,3.9,2.3,5.8,7,5.8c2.2,0,4.4-0.6,6.4-1.9l-1.1-2.4
		c-2,1.1-3.8,1.6-5.4,1.6c-2.7,0-4-1.1-4-3.4v-2.1L44,31.8v-5.5c0-2.1-0.6-3.8-1.9-4.9C40.9,20.2,39.2,19.6,37,19.6z M41.1,29.2
		l-8.6,0.4v-3.2c0-1.4,0.4-2.4,1.2-3.2c0.8-0.7,1.8-1.1,3-1.1c1.2,0,2.2,0.3,3.1,0.9c0.9,0.6,1.3,1.6,1.3,3V29.2z"/>
</g>
</svg>
