<svg id="Layer_1" data-name="Layer 1" xmlns="http://www.w3.org/2000/svg" viewBox="0 0 295 294.86"><defs><style>.cls-1{fill:#f9e988;stroke:#8dc63f;stroke-width:19px;}.cls-2{fill:none;}.cls-3{fill:#8bc53f;}.cls-4{fill:#fff;}.cls-5{fill:#009345;}.cls-6{fill:#58595b;}.cls-7{fill:#54505d;}</style></defs><g id="coingecko"><path id="Path_34" data-name="Path 34" class="cls-1" d="M285.5,147A138,138,0,1,1,146.89,9.64h0A138,138,0,0,1,285.5,147Z" transform="translate(0 -0.14)"/><path id="Path_36" data-name="Path 36" class="cls-2" d="M149.85,29.29a70.18,70.18,0,0,1,24.53,0,74.75,74.75,0,0,1,23.43,7.85c7.28,4,13.57,9.42,19.83,14.51s12.49,10.29,18.42,16a93.54,93.54,0,0,1,15.71,19,108.46,108.46,0,0,1,11,22.16c5.33,15.65,7.18,32.51,4.52,48.6h-.79c-2.67-15.95-6.29-31.14-12-45.59a177.38,177.38,0,0,0-9.44-21.24,207.7,207.7,0,0,0-12.42-19.92A72.46,72.46,0,0,0,216,53.85c-6.48-4.62-13.93-7.61-21.14-10.45S180.5,37.63,173,35.47s-15.16-3.78-23.14-5.35Z" transform="translate(0 -0.14)"/><path id="Path_37" data-name="Path 37" class="cls-3" d="M212.24,103c-9.26-2.67-18.86-6.47-28.58-10.31-.56-2.44-2.72-5.48-7.09-9.19-6.35-5.5-18.28-5.36-28.59-2.92-11.38-2.68-22.62-3.63-33.41-1C26.32,103.85,76.36,163.13,44,222.72c4.61,9.78,54.3,66.81,126.2,51.51,0,0-24.59-59.06,30.9-87.41C246.07,163.74,278.59,121,212.24,103Z" transform="translate(0 -0.14)"/><path id="Path_38" data-name="Path 38" class="cls-4" d="M223.14,141.77a5.35,5.35,0,1,1-5.38-5.31,5.35,5.35,0,0,1,5.38,5.31Z" transform="translate(0 -0.14)"/><path id="Path_39" data-name="Path 39" class="cls-5" d="M148,80.52c6.43.46,29.68,8,35.68,12.11-5-14.49-21.83-16.42-35.68-12.11Z" transform="translate(0 -0.14)"/><path id="Path_40" data-name="Path 40" class="cls-4" d="M154.1,117.17a24.68,24.68,0,1,1-24.69-24.66h0A24.68,24.68,0,0,1,154.1,117.17Z" transform="translate(0 -0.14)"/><path id="Path_41" data-name="Path 41" class="cls-6" d="M146.78,117.39A17.36,17.36,0,1,1,129.42,100h0A17.35,17.35,0,0,1,146.78,117.39Z" transform="translate(0 -0.14)"/><path id="Path_42" data-name="Path 42" class="cls-3" d="M243.13,152.65c-20,14.08-42.74,24.77-75,24.77-15.1,0-18.16-16-28.14-8.18-5.15,4.06-23.31,13.13-37.72,12.44S64.5,172.55,58,141.8c-2.58,30.75-3.9,53.4-15.45,79.35,23,36.82,77.84,65.21,127.62,53-5.35-37.33,27.29-73.9,45.68-92.61,7-7.08,20.3-18.65,27.29-28.89Z" transform="translate(0 -0.14)"/><path id="Path_43" data-name="Path 43" class="cls-7" d="M242.35,153.57c-6.21,5.66-13.6,9.84-21.12,13.54a134.9,134.9,0,0,1-23.7,8.63c-8.16,2.11-16.67,3.7-25.29,2.92S154.81,175,149.1,168.49l.27-.31c7,4.54,15.08,6.14,23.12,6.37a108.86,108.86,0,0,0,24.3-2,131.89,131.89,0,0,0,23.61-7.3c7.63-3.15,15.18-6.79,21.68-12Z" transform="translate(0 -0.14)"/></g></svg>